<?xml version="1.0" encoding="utf-8"?>
<!-- Generator: Adobe Illustrator 27.7.0, SVG Export Plug-In . SVG Version: 6.00 Build 0)  -->
<svg version="1.1" id="Layer_1" xmlns="http://www.w3.org/2000/svg" xmlns:xlink="http://www.w3.org/1999/xlink" x="0px" y="0px"
	 viewBox="0 0 31.9 32" style="enable-background:new 0 0 31.9 32;" xml:space="preserve">
<style type="text/css">
	.st0{fill:#FEFEFF;}
	.st1{fill:#40D0FE;}
	.st2{fill:#40D0FF;}
	.st3{fill:#FEAF00;}
	.st4{fill:#FFFB00;}
	.st5{fill:#FEB700;}
	.st6{fill:#FEA900;}
	.st7{fill:#FEF300;}
	.st8{fill:#FEE400;}
	.st9{fill:#FEF700;}
	.st10{fill:#FEEE00;}
	.st11{fill:#FEC800;}
	.st12{fill:#FEDC00;}
	.st13{fill:#FEC000;}
	.st14{fill:#FEBA00;}
	.st15{fill:#FEC848;}
	.st16{fill:#FFF047;}
	.st17{fill:#FEBE00;}
	.st18{fill:#FEE900;}
	.st19{fill:#FEE300;}
	.st20{fill:#FEC300;}
	.st21{fill:#FED600;}
	.st22{fill:#FECE01;}
	.st23{fill:#7FCCA6;}
	.st24{fill:#9ACB87;}
	.st25{fill:#D2D831;}
</style>
<g>
	<path class="st0" d="M6,26c0-6.7,0-13.3,0-20c6.4,0,12.7,0,19.1,0c0,6.7,0,13.3,0,20C18.7,26,12.4,26,6,26z M19.6,23.9
		c0.3,0,0.6,0,0.8,0c0.3,0,0.7,0,1,0c0.4,0,0.8,0,1.2,0c0.2,0,0.5,0,0.7,0c0,0,0,0,0,0c0.2,0,0.2,0,0.2-0.2c0-4.9,0-9.8,0-14.7
		c0-0.1,0-0.1,0-0.2c0.2-0.3,0.4-0.6,0.4-0.9c0.1-0.3,0.1-0.6,0.2-0.9c0,0-0.1-0.1-0.1-0.2c-0.1,0-0.2-0.1-0.3-0.1c-1,0-2,0-3,0
		c-4.4,0-8.9,0-13.3,0c0,0-0.1,0-0.1,0C7,6.9,6.9,7,6.9,7.2C7,7.5,7,7.8,7.2,8.1c0.1,0.2,0.2,0.4,0.3,0.6c0,0.1,0,0.1,0,0.2
		c0,5,0,9.9,0,14.9c0,0,0,0,0,0.1c0,0.1,0,0.1,0.1,0.1c0.3,0,0.6,0,0.8,0c0.3,0,0.5,0,0.8,0c0.3,0,0.5,0,0.8,0c0.4,0,0.9,0,1.3,0
		c0,0,0,0,0,0c0,0,0.1,0,0.1,0c0.3,0,0.6,0,0.9,0c0,0,0,0,0,0c0.2,0,0.4,0,0.6,0c0.1,0,0.3,0,0.4,0c0,0,0,0,0,0c0.3,0,0.5,0,0.8,0
		c0,0,0.1,0,0.1,0c0,0.1,0.1,0.3,0.1,0.4c0.3,0.8,1.4,1,2,0.4c0.2-0.2,0.3-0.4,0.4-0.7c0,0,0.1,0,0.1,0c0,0,0,0,0.1,0c0,0,0,0,0,0
		c0,0,0.1,0,0.1,0c0,0,0,0,0,0c0.4,0,0.8,0,1.1,0C18.8,23.9,19.2,23.9,19.6,23.9z"/>
	<path class="st1" d="M16.9,23.9c-0.1,0.3-0.2,0.5-0.4,0.7c-0.6,0.6-1.7,0.4-2-0.4c-0.1-0.1-0.1-0.3-0.1-0.4c0-0.3,0-0.5,0-0.8
		c0,0,0-0.1,0-0.1c0-0.3,0-0.6,0-0.9c0-0.3,0-0.7,0-1c0,0,0-0.1,0-0.1c0-1.2,0-2.3,0-3.5c0-0.2,0-0.2-0.2-0.2c0,0-0.1,0-0.1,0
		c0,0,0,0,0,0c0,0,0,0-0.1,0c0,0,0,0,0,0c0,0,0,0-0.1,0c0,0,0,0,0,0c0,0,0,0-0.1,0c0,0,0,0,0,0c-0.1,0-0.1,0-0.2,0c0,0,0,0,0,0
		c0,0,0,0-0.1,0c0,0,0,0,0,0c0,0,0,0-0.1,0c0,0,0,0,0,0c0,0,0,0-0.1,0c0,0,0,0,0,0c0,0,0,0-0.1,0c0,0,0,0,0,0c0,0,0,0-0.1,0
		c0,0,0,0,0,0c0,0,0,0-0.1,0c0,0,0,0,0,0c0,0,0,0-0.1,0c0,0,0,0,0,0c0,0,0,0-0.1,0c0,0,0,0,0,0c0,0,0,0-0.1,0c0,0,0,0,0,0
		c0,0,0,0-0.1,0c0,0,0,0,0,0c0,0,0,0-0.1,0c0,0,0,0,0,0c0,0,0,0-0.1,0c0,0,0,0,0,0c0,0,0,0-0.1,0c0,0,0,0,0,0c0,0,0,0-0.1,0
		c0,0,0,0,0,0c0,0,0,0-0.1,0c0,0,0,0,0,0c0,0,0,0-0.1,0c0,0,0,0,0,0c0,0,0,0-0.1,0c0,0,0,0,0,0c0,0,0,0-0.1,0c0,0,0,0,0,0
		c0,0,0,0-0.1,0c0,0,0,0,0,0c0,0,0,0-0.1,0c0,0,0,0,0,0c0,0,0,0-0.1,0c0,0,0,0,0,0c0,0,0,0,0,0c0,0,0,0-0.1,0c0,0,0,0,0,0
		c0,0,0,0-0.1,0c0,0,0,0,0,0c-0.1,0-0.2,0-0.3,0c-0.2,0-0.5-0.1-0.6-0.2c0,0,0,0,0,0c0,0,0,0-0.1-0.1c0,0,0,0,0,0
		c0-0.1,0-0.3,0.1-0.4c0.1-0.2,0.3-0.3,0.4-0.5c0,0,0,0,0,0l0,0c0,0,0,0,0,0c0,0,0,0,0,0c0,0,0,0,0,0c0,0,0,0,0,0c0,0,0,0,0,0
		c0,0,0,0,0,0c0,0,0,0,0,0c0,0,0,0,0,0c0,0,0,0,0,0c0,0,0,0,0,0c0,0,0,0,0,0c0,0,0,0,0,0c0.1-0.1,0.3-0.3,0.4-0.4
		c0.2-0.2,0.5-0.5,0.7-0.7c0.3-0.3,0.7-0.7,1-1c0,0,0,0,0,0c0,0,0,0,0.1-0.1c0.3-0.3,0.6-0.6,0.9-0.9c0.3-0.2,0.5-0.5,0.8-0.7
		c0.2-0.2,0.5-0.4,0.8-0.4c0.4,0,0.7,0.3,1,0.5c0.1,0.1,0.2,0.2,0.4,0.4c0.1,0.1,0.2,0.2,0.3,0.4c0.3,0.3,0.5,0.5,0.8,0.8
		c0.3,0.3,0.6,0.6,0.9,0.9l0,0c0,0,0,0,0,0l0,0c0,0,0.1,0,0.1,0.1c0.3,0.3,0.7,0.7,1,1c0.2,0.3,0.5,0.5,0.7,0.8
		c0.2,0.3,0.1,0.7-0.3,0.8c-0.1,0-0.1,0-0.2,0.1c-0.1,0-0.3,0-0.4,0c0,0-0.1,0-0.1,0c0,0,0,0-0.1,0c-0.2,0-0.4,0-0.5,0
		c0,0,0,0-0.1,0c0,0-0.1,0-0.1,0c0,0,0,0-0.1,0c0,0-0.1,0-0.1,0c0,0,0,0-0.1,0c0,0-0.1,0-0.1,0c0,0,0,0-0.1,0c0,0-0.1,0-0.1,0
		c0,0,0,0-0.1,0c0,0-0.1,0-0.1,0c0,0,0,0-0.1,0c0,0,0,0,0,0c0,0,0,0-0.1,0c0,0,0,0,0,0c0,0,0,0-0.1,0c0,0,0,0,0,0c0,0,0,0-0.1,0
		c0,0,0,0,0,0c0,0,0,0-0.1,0c0,0,0,0,0,0c0,0,0,0-0.1,0c0,0,0,0,0,0c0,0,0,0-0.1,0c0,0,0,0,0,0c0,0,0,0-0.1,0c0,0,0,0,0,0
		c0,0,0,0-0.1,0c0,0,0,0,0,0c0,0,0,0-0.1,0c0,0-0.1,0-0.1,0c0,0,0,0-0.1,0c0,0-0.1,0-0.1,0c0,0.1,0,0.1,0,0.2c0,1.9,0,3.7,0,5.6
		C16.9,23.4,16.9,23.7,16.9,23.9C16.9,23.9,16.9,23.9,16.9,23.9z"/>
	<path class="st2" d="M7.4,8.6C7.3,8.4,7.3,8.3,7.2,8.1C7,7.8,7,7.5,6.9,7.2C6.9,7,7,6.9,7.2,6.9c0,0,0.1,0,0.1,0
		c4.4,0,8.9,0,13.3,0c1,0,2,0,3,0c0.1,0,0.2,0,0.3,0.1c0,0,0.1,0.1,0.1,0.2c0,0.3-0.1,0.6-0.2,0.9c-0.1,0.3-0.3,0.6-0.4,0.9
		c0,0.1-0.1,0.1-0.1,0.2c-0.2,0.2-0.4,0.4-0.7,0.6c-0.3,0.2-0.6,0.3-0.9,0.4c-0.1,0-0.3,0.1-0.4,0.1c-0.2,0-0.4,0-0.5,0c0,0,0,0,0,0
		c-0.2,0-0.3,0-0.5,0c-0.2,0-0.4,0-0.6,0c0,0,0,0,0,0c0,0,0,0-0.1,0c0,0,0,0,0,0c0,0,0,0-0.1,0c0,0,0,0,0,0c0,0,0,0-0.1,0
		c0,0,0,0,0,0c0,0,0,0-0.1,0c0,0,0,0,0,0c0,0,0,0-0.1,0c0,0,0,0,0,0c0,0,0,0-0.1,0c0,0,0,0,0,0c0,0,0,0-0.1,0c0,0,0,0,0,0
		c0,0,0,0-0.1,0c0,0,0,0,0,0c-0.1,0-0.1,0-0.2,0c0,0,0,0,0,0c-0.1,0-0.1,0-0.2,0c0,0,0,0,0,0c0,0,0,0-0.1,0c0,0,0,0,0,0
		c0,0-0.1,0-0.1,0c-0.4,0-0.8,0-1.2,0c-0.4,0-0.9,0-1.3,0c-0.5,0-1,0-1.5,0c-0.1,0-0.2,0-0.3,0c0,0,0,0,0,0c0,0,0,0-0.1,0
		c-0.1,0-0.2,0-0.2,0c0,0,0,0-0.1,0c-0.1,0-0.2,0-0.3,0c0,0-0.1,0-0.1,0c0,0,0,0-0.1,0c0,0,0,0,0,0c0,0,0,0-0.1,0c0,0,0,0,0,0l0,0
		c0,0,0,0,0,0c0,0,0,0-0.1,0c0,0,0,0,0,0l0,0c0,0,0,0,0,0c0,0,0,0-0.1,0c-0.2,0-0.5,0-0.7,0c0,0,0,0,0,0c0,0,0,0-0.1,0
		c-0.1,0-0.2,0-0.3,0c-0.1,0-0.1,0-0.2,0c-0.1,0-0.1,0-0.2,0c0,0,0,0-0.1,0c0,0,0,0-0.1,0c0,0,0,0,0,0c0,0,0,0-0.1,0c0,0,0,0,0,0
		c0,0,0,0-0.1,0c0,0,0,0,0,0c0,0,0,0-0.1,0c0,0,0,0,0,0c0,0,0,0-0.1,0c0,0,0,0,0,0c0,0,0,0-0.1,0c0,0,0,0,0,0c0,0,0,0-0.1,0
		c0,0,0,0,0,0c0,0,0,0-0.1,0c0,0,0,0,0,0c0,0,0,0-0.1,0c0,0,0,0,0,0c0,0,0,0-0.1,0c0,0,0,0,0,0c0,0,0,0,0,0c0,0,0,0,0,0
		c-0.2,0-0.5-0.1-0.7-0.1C9.2,10,8.9,9.9,8.7,9.8c0,0,0,0,0,0c0,0,0,0,0,0c0,0,0,0,0,0C8.4,9.6,8.1,9.5,7.9,9.3
		C7.8,9.1,7.6,8.9,7.4,8.6z"/>
	<path class="st3" d="M21.5,10.2c0.1,0,0.3-0.1,0.4-0.1c0.3-0.1,0.6-0.3,0.9-0.4c0.1,0.1,0,0.2,0,0.3c0,0.1-0.1,0.1-0.1,0.2
		c0,0.2,0,0.4,0,0.7c0,0.1,0,0.1,0,0.2c0,0.2,0,0.4,0,0.7c0,0,0,0.1,0,0.1c0,0.1,0,0.2,0,0.3c0,0,0,0.1,0,0.1c0,0.2,0,0.4,0,0.7
		c0,0,0,0.1,0,0.1c0,0.1,0,0.2,0,0.3c0,0,0,0.1,0,0.1c0,0.2,0,0.4,0,0.7c0,0,0,0.1,0,0.1c0,0.1,0,0.2,0,0.3c0,0,0,0.1,0,0.1
		c0,0.2,0,0.4,0,0.7c0,0,0,0.1,0,0.1c0,0.1,0,0.2,0,0.3c0,0,0,0.1,0,0.1c0,0.2,0,0.4,0,0.7c0,0,0,0.1,0,0.1c0,0.1,0,0.2,0,0.2
		c0,0.1,0,0.1,0,0.2c0,0.2,0,0.4,0,0.6c0,0.1,0,0.1,0,0.2c0,0.1,0,0.1,0,0.2c0,0.1,0,0.1,0,0.2c0,0.2,0,0.4,0,0.6c0,0.1,0,0.1,0,0.2
		c0,0.1,0,0.1,0,0.2c0,0.1,0,0.1,0,0.2c0,0.2,0,0.4,0,0.6c0,0.1,0,0.1,0,0.2c0,0.1,0,0.1,0,0.2c0,0.1,0,0.1,0,0.2c0,0.2,0,0.4,0,0.6
		c0,0.1,0,0.1,0,0.2c0,0.1,0,0.1,0,0.2c0,0.1,0,0.1,0,0.2c0,0.2,0,0.4,0,0.6c0,0,0,0.1,0,0.1c0,0.2,0,0.4,0,0.7c0,0,0,0,0,0
		c0,0,0,0.1,0,0.1c0,0.1,0,0.1,0,0.2c0,0.1,0,0.1,0,0.2c0.1,0.1,0,0.1,0,0.2c-0.4,0-0.8,0-1.2,0c0-0.1-0.1-0.2,0-0.4c0,0,0,0,0,0
		c-0.1-0.2-0.1-0.5,0-0.7c0,0,0-0.1,0-0.1c-0.1-0.2-0.1-0.5,0-0.7c0,0,0-0.1,0-0.1c-0.1-0.1-0.1-0.2-0.1-0.2c0-0.2-0.1-0.3,0.1-0.5
		c0,0,0-0.1,0-0.1c-0.1-0.1-0.1-0.2-0.1-0.2c0-0.2-0.1-0.3,0.1-0.5c0,0,0-0.1,0-0.1c0,0,0-0.1,0-0.1c0-0.2-0.1-0.4,0.1-0.6
		c0,0,0-0.1,0-0.1c-0.1-0.1-0.1-0.1-0.1-0.2c0-0.2-0.1-0.3,0.1-0.5c0,0,0-0.1,0-0.1c-0.1-0.1-0.1-0.2-0.1-0.3c0-0.2-0.1-0.3,0.1-0.5
		c0,0,0-0.1,0-0.1c-0.1-0.2-0.1-0.5,0-0.7c0,0,0-0.1,0-0.1c-0.1-0.1-0.1-0.2-0.1-0.2c0-0.2-0.1-0.3,0.1-0.5c0,0,0-0.1,0-0.1
		c-0.1-0.1-0.1-0.2-0.1-0.3c0-0.1-0.1-0.3,0.1-0.4c0,0,0,0,0-0.1c-0.1-0.2-0.1-0.5,0-0.7c0,0,0,0,0-0.1c0-0.1-0.1-0.2-0.1-0.2
		c0-0.2-0.1-0.3,0.1-0.5c0,0,0-0.1,0-0.1c-0.1-0.1-0.1-0.2-0.1-0.2c0-0.2-0.1-0.3,0.1-0.5c0,0,0,0,0-0.1c0-0.1-0.1-0.2-0.1-0.2
		c0-0.2-0.1-0.3,0.1-0.5c0,0,0-0.1,0-0.1c-0.1-0.1-0.1-0.2,0-0.3c0,0,0-0.1,0-0.1c-0.1-0.1-0.1-0.2,0-0.3c0,0,0-0.1,0-0.1
		c-0.1-0.1,0-0.2,0-0.3c0,0,0-0.1,0-0.2c0-0.1,0-0.2,0-0.2c0,0,0-0.1,0-0.1c-0.1-0.1-0.1-0.2,0-0.4c0,0,0,0,0,0
		C21.4,10.3,21.5,10.3,21.5,10.2z"/>
	<path class="st4" d="M7.4,8.6c0.2,0.2,0.3,0.4,0.5,0.6c0.2,0.2,0.4,0.3,0.6,0.5c0,0,0,0,0,0c0,0,0,0-0.1,0c-0.2,0-0.2,0-0.2,0.2
		c0,0-0.1,0-0.1,0.1c0.1,0.1,0.1,0.2,0.1,0.2c0,0.2,0.1,0.4,0,0.6c0.1,0.2,0.1,0.3,0,0.5c0,0.1,0,0.1,0,0.2c0,0.1,0,0.2,0,0.2
		c0,0.1,0.1,0.2,0,0.3c0,0,0,0.1,0,0.1c0,0.1,0,0.1,0,0.2c0,0.1,0,0.2,0,0.3c0,0,0,0.1,0,0.2c0,0.1,0,0.1,0,0.2
		c0,0.1-0.1,0.2-0.1,0.3c0,0.1,0.1,0.2,0,0.3c0,0.1,0,0.1,0,0.2c0,0.1,0,0.1,0,0.2c0,0.1-0.1,0.1,0,0.2c0,0,0,0.1,0,0.1
		c0,0.1,0,0.3,0,0.4c0,0.1,0,0.3,0,0.4c0,0.1,0,0.3,0,0.4c0,0.1,0,0.2,0,0.4c0,0.1,0,0.3,0,0.4c0,0.2,0,0.3,0,0.5c0,0.1,0,0.1,0,0.2
		c0,0.1,0,0.2,0,0.2c-0.1,0.1,0,0.3,0,0.4c0,0.1,0,0.2,0,0.3c0,0.2,0,0.3,0,0.5c0,0.1,0,0.2,0,0.4c0,0.1-0.1,0.2,0,0.3
		c0,0.1-0.1,0.3,0,0.4c0,0,0,0.1,0,0.1c0,0.1-0.1,0.2,0,0.3c0,0.1-0.1,0.3,0,0.4c0,0,0,0.1,0,0.1c0,0.1-0.1,0.2,0,0.3
		c0,0.1,0,0.3,0,0.4c0,0,0,0.1,0,0.2c0,0,0,0.1,0,0.1c0.1,0.1,0,0.2,0,0.3c0,0.2,0,0.3,0,0.5c0,0.1,0,0.2,0,0.3c0.1,0.2,0,0.3,0,0.5
		c0,0.2,0,0.3,0,0.5c0,0.1,0,0.1,0,0.2c-0.1,0.1,0,0.1,0,0.2c0,0.1-0.1,0.1-0.1,0.1c-0.3,0-0.6,0-0.8,0c-0.1,0-0.1,0-0.1-0.1
		c0,0,0,0,0-0.1c0-5,0-9.9,0-14.9C7.4,8.8,7.4,8.7,7.4,8.6z"/>
	<path class="st5" d="M21.5,10.2c0,0.1-0.1,0.2,0,0.2c0,0,0,0,0,0c-0.1,0.1-0.1,0.2,0,0.4c0,0,0,0.1,0,0.1c0,0.1,0,0.2,0,0.2
		c0,0,0,0.1,0,0.2c0,0.1-0.1,0.2,0,0.3c0,0,0,0.1,0,0.1c-0.1,0.1-0.1,0.2,0,0.3c0,0,0,0.1,0,0.1c0,0.1-0.1,0.2,0,0.3
		c0,0,0,0.1,0,0.1c-0.1,0.2-0.1,0.3-0.1,0.5c0,0.1,0,0.2,0.1,0.2c0,0,0,0.1,0,0.1c-0.1,0.1-0.1,0.3-0.1,0.5c0,0.1,0,0.2,0.1,0.2
		c0,0,0,0.1,0,0.1c-0.1,0.2-0.1,0.3-0.1,0.5c0,0.1,0,0.2,0.1,0.2c0,0,0,0.1,0,0.1c-0.1,0.2-0.1,0.5,0,0.7c0,0,0,0.1,0,0.1
		c-0.1,0.1-0.1,0.3-0.1,0.4c0,0.1,0,0.2,0.1,0.3c0,0,0,0.1,0,0.1c-0.1,0.2-0.1,0.3-0.1,0.5c0,0.1,0,0.2,0.1,0.2c0,0,0,0,0,0.1
		c-0.1,0.2-0.1,0.5,0,0.7c0,0,0,0.1,0,0.1c-0.1,0.1-0.1,0.3-0.1,0.5c0,0.1,0,0.2,0.1,0.3c0,0,0,0.1,0,0.1c-0.1,0.2-0.1,0.3-0.1,0.5
		c0,0.1,0,0.2,0.1,0.2c0,0,0,0.1,0,0.1c-0.1,0.2,0,0.4-0.1,0.6c0,0,0,0,0,0.1c0,0,0,0.1,0,0.1c-0.1,0.2-0.1,0.3-0.1,0.5
		c0,0.1,0,0.2,0.1,0.2c0,0,0,0.1,0,0.1c-0.1,0.2-0.1,0.3-0.1,0.5c0,0.1,0,0.2,0.1,0.2c0,0,0,0,0,0.1c-0.1,0.2-0.1,0.5,0,0.7
		c0,0,0,0.1,0,0.1c-0.1,0.2-0.1,0.5,0,0.7c0,0,0,0,0,0c-0.1,0.1,0.1,0.2,0,0.4c-0.3,0-0.7,0-1,0c0-0.1,0-0.1-0.1-0.2
		c0,0,0-0.1,0-0.1c0-0.2,0-0.4,0-0.5c0-0.2,0-0.3,0-0.5c0-0.1,0-0.2,0-0.4c0-0.1,0-0.3,0-0.4c0-0.1,0-0.2,0-0.3c0-0.2,0-0.4,0-0.5
		c0-0.1,0-0.2,0-0.4c0-0.1,0-0.3,0-0.4c0-0.1,0-0.2,0-0.3c0-0.2,0-0.3,0-0.5c0-0.1,0-0.2,0-0.3c0-0.2,0-0.3,0-0.5c0-0.1,0-0.1,0-0.2
		c0-0.2,0.1-0.4,0-0.5c0-0.2,0.1-0.4-0.1-0.5c0,0,0,0,0,0c0.1,0,0.1,0,0.2-0.1c0.4-0.1,0.5-0.4,0.3-0.8c-0.2-0.3-0.5-0.6-0.7-0.8
		c0-0.1,0-0.1,0-0.2c0-0.1-0.1-0.2,0-0.3c0,0,0-0.1,0-0.2c0-0.1,0-0.1,0-0.2c0-0.2,0-0.4,0-0.6c0-0.1,0-0.1,0-0.2c0-0.2,0-0.4,0-0.6
		c0,0,0,0,0,0c0,0,0-0.1,0-0.1c0-0.2,0-0.4,0-0.6c0,0,0,0,0,0c0-0.2,0-0.3,0-0.5c0,0,0,0,0,0c0-0.2,0-0.4,0-0.6c0,0,0-0.1,0-0.1
		c0,0,0-0.1,0-0.1c0.1-0.1,0-0.2,0-0.3c0,0,0-0.1,0-0.1c0-0.1,0-0.2,0-0.3c0-0.2,0-0.3,0.2-0.3c0.1,0,0.1-0.1,0.1-0.1
		c0.2,0,0.3,0,0.5,0c0,0,0,0,0,0C21.1,10.2,21.3,10.2,21.5,10.2z"/>
	<path class="st6" d="M22.7,23.9c0-0.1,0.1-0.1,0-0.2c0,0,0-0.1,0-0.2c0-0.1,0-0.1,0-0.2c0,0,0-0.1,0-0.1c0,0,0,0,0,0
		c0-0.2,0-0.4,0-0.7c0,0,0-0.1,0-0.1c0-0.2,0-0.4,0-0.6c0-0.1,0-0.1,0-0.2c0-0.1,0-0.1,0-0.2c0-0.1,0-0.1,0-0.2c0-0.2,0-0.4,0-0.6
		c0-0.1,0-0.1,0-0.2c0-0.1,0-0.1,0-0.2c0-0.1,0-0.1,0-0.2c0-0.2,0-0.4,0-0.6c0-0.1,0-0.1,0-0.2c0-0.1,0-0.1,0-0.2c0-0.1,0-0.1,0-0.2
		c0-0.2,0-0.4,0-0.6c0-0.1,0-0.1,0-0.2c0-0.1,0-0.1,0-0.2c0-0.1,0-0.1,0-0.2c0-0.2,0-0.4,0-0.6c0-0.1,0-0.1,0-0.2c0-0.1,0-0.2,0-0.2
		c0,0,0-0.1,0-0.1c0-0.2,0-0.4,0-0.7c0,0,0-0.1,0-0.1c0-0.1,0-0.2,0-0.3c0,0,0-0.1,0-0.1c0-0.2,0-0.4,0-0.7c0,0,0-0.1,0-0.1
		c0-0.1,0-0.2,0-0.3c0,0,0-0.1,0-0.1c0-0.2,0-0.4,0-0.7c0,0,0-0.1,0-0.1c0-0.1,0-0.2,0-0.3c0,0,0-0.1,0-0.1c0-0.2,0-0.4,0-0.7
		c0,0,0-0.1,0-0.1c0-0.1,0-0.2,0-0.3c0,0,0-0.1,0-0.1c0-0.2,0-0.4,0-0.7c0-0.1,0-0.1,0-0.2c0-0.2,0-0.4,0-0.7c0-0.1,0-0.2,0.1-0.2
		c0.1-0.1,0.1-0.3,0-0.3C23,9.4,23.3,9.3,23.4,9c0-0.1,0.1-0.1,0.1-0.2c0,0.1,0,0.1,0,0.2c0,4.9,0,9.8,0,14.7c0,0.2,0,0.2-0.2,0.2
		c0,0,0,0,0,0C23.2,23.9,22.9,23.9,22.7,23.9z"/>
	<path class="st7" d="M9.5,10.2c0.2,0,0.5,0.1,0.7,0.1c0,0,0,0,0,0c0,0,0,0,0,0c0,0,0,0,0,0c0,0,0,0,0.1,0c0,0,0,0,0,0
		c0,0,0,0,0.1,0c0,0,0,0,0,0c0,0,0,0,0.1,0c0,0,0,0,0,0c0,0,0,0,0.1,0c0,0,0,0,0,0c0,0,0,0,0,0c-0.1,0-0.3,0-0.4,0
		c-0.1,0-0.2,0-0.2,0.1c0,0,0,0,0,0c-0.1,0.1-0.1,0.2,0,0.2c0.1,0.1,0.1,0.1,0,0.2c-0.1,0.1-0.1,0.1,0,0.2c0,0,0,0.1,0,0.2
		c-0.1,0.1-0.1,0.2,0,0.3c0,0,0,0.1,0,0.1c-0.1,0.1-0.1,0.2,0,0.2c0,0,0,0.1,0,0.2c-0.1,0.1-0.1,0.2,0,0.2c0.1,0.1,0.1,0.1,0,0.2
		c-0.1,0.1-0.1,0.1,0,0.2c0,0,0,0.1,0,0.2c-0.1,0.1-0.1,0.2,0,0.2c0.1,0.1,0.1,0.1,0,0.2c-0.1,0.1-0.1,0.1,0,0.2c0,0,0,0.1,0,0.2
		c-0.1,0.1-0.1,0.2,0,0.3c0,0,0,0.1,0,0.1c-0.1,0.1-0.1,0.2,0,0.2c0,0,0,0.1,0,0.2c-0.1,0.1-0.1,0.2,0,0.2c0.1,0.1,0.1,0.1,0,0.2
		C9.9,15,9.9,15,10,15.1c0,0,0,0.1,0,0.2c-0.1,0.1-0.1,0.2,0,0.2c0.1,0.1,0.1,0.1,0,0.2c-0.1,0.1-0.1,0.1,0,0.2c0,0,0,0.1,0,0.2
		c-0.1,0.1-0.1,0.2,0,0.3c0,0,0,0.1,0,0.1c-0.1,0.1-0.1,0.2,0,0.3c0,0,0,0.1,0,0.1c0,0.1,0.1,0.1,0.1,0.2c0,0,0,0,0,0c0,0,0,0,0,0
		c-0.1,0-0.2,0.1-0.1,0.2c0,0,0,0,0,0c-0.1,0.1-0.1,0.1,0,0.2c0.1,0.1,0.1,0.1,0,0.2c-0.1,0.1-0.1,0.1,0,0.2c0,0,0,0.1,0,0.2
		c-0.1,0.1-0.1,0.1,0,0.2c0,0,0,0.1,0,0.2c-0.1,0.1-0.1,0.1,0,0.2c0,0,0,0.1,0,0.2C9.9,19,9.9,19,10,19.1c0,0,0,0.1,0,0.2
		c-0.1,0.1-0.1,0.1,0,0.2c0,0,0,0.1,0,0.2c-0.1,0.1-0.1,0.2,0,0.2c0,0,0,0.1,0,0.2c-0.1,0.1-0.1,0.1,0,0.2c0,0,0,0.1,0,0.2
		c-0.1,0.1-0.1,0.1,0,0.2c0,0,0,0.1,0,0.2c-0.1,0.1-0.1,0.1,0,0.2c0.1,0.1,0.1,0.1,0,0.2c-0.1,0.1-0.1,0.1,0,0.2c0,0,0,0.1,0,0.2
		c-0.1,0.1-0.1,0.2,0,0.2c0,0,0,0.1,0,0.2c-0.1,0.1-0.1,0.1,0,0.2c0,0,0,0.1,0,0.2c-0.1,0.1-0.1,0.1,0,0.2c0.1,0.1,0.1,0.1,0,0.2
		c-0.1,0.1-0.1,0.1,0,0.2c0,0,0.1,0.1,0,0.1c-0.1,0.1-0.1,0.2,0,0.4c0,0.1,0.1,0.2-0.1,0.3c0,0,0,0,0,0c-0.3,0-0.5,0-0.8,0
		c0-0.1,0-0.2,0-0.2c0,0,0,0,0,0c0,0,0.1,0,0.1-0.1c-0.1-0.1-0.2-0.1-0.2-0.2c0-0.1,0.1-0.1,0.1-0.2c-0.1,0-0.1-0.1-0.1-0.2
		c0-0.1,0.1-0.1,0.1-0.2c0-0.1-0.1-0.1-0.1-0.1c0-0.1,0-0.1,0-0.2c0,0,0.1-0.1,0.1-0.1c-0.2,0-0.1-0.2-0.1-0.3c0,0,0.1-0.1,0.1-0.1
		c-0.2,0-0.1-0.2-0.2-0.3c0,0,0.1-0.1,0.1-0.1c-0.2,0-0.1-0.2-0.1-0.3c0,0,0.1-0.1,0.1-0.1c-0.2,0-0.1-0.2-0.1-0.3
		c0,0,0.1-0.1,0.1-0.1c0-0.1-0.1-0.1-0.1-0.1c0-0.1,0-0.1,0-0.2c0,0,0.1-0.1,0.1-0.1c-0.2-0.1-0.2-0.2,0-0.4c-0.2,0-0.1-0.2-0.1-0.3
		c0,0,0.1-0.1,0.1-0.1c-0.2,0-0.1-0.2-0.1-0.3c0,0,0.1-0.1,0.1-0.1c-0.2,0-0.1-0.2-0.2-0.3c0,0,0.1-0.1,0.1-0.1
		c-0.2,0-0.1-0.2-0.1-0.3c0,0,0.1-0.1,0.1-0.1c-0.2,0-0.1-0.2-0.1-0.3c0,0,0.1-0.1,0.1-0.1c0-0.1-0.1-0.1-0.1-0.1c0-0.1,0-0.1,0-0.2
		c0,0,0.1-0.1,0.1-0.1c-0.1,0-0.1-0.1-0.1-0.2c0-0.1,0.1-0.1,0.1-0.2c-0.1,0-0.1-0.1-0.1-0.2c0-0.1,0.1-0.1,0.1-0.2
		c0-0.1-0.1-0.1-0.1-0.1c0-0.1,0-0.1,0-0.2c0,0,0.1-0.1,0.1-0.1c-0.2,0-0.1-0.2-0.1-0.3c0,0,0.1-0.1,0.1-0.1c-0.2,0-0.1-0.2-0.2-0.3
		c0,0,0.1-0.1,0.1-0.1c-0.2,0-0.1-0.2-0.1-0.3c0,0,0.1-0.1,0.1-0.1c0-0.1-0.1-0.1-0.1-0.1c0-0.1,0-0.1,0-0.2c0,0,0.1-0.1,0.1-0.1
		c-0.2,0-0.1-0.2-0.1-0.3c0,0,0.1-0.1,0.1-0.1c-0.2-0.1-0.2-0.2,0-0.4c-0.2,0-0.1-0.2-0.1-0.3c0,0,0.1-0.1,0.1-0.1
		c-0.2,0-0.1-0.2-0.1-0.3c0,0,0.1,0,0.1,0c0,0,0,0,0.1,0c-0.1-0.1-0.1-0.1-0.1-0.3c0,0,0.1-0.1,0.1-0.1c-0.2,0-0.1-0.2-0.1-0.3
		c0,0,0.1-0.1,0.1-0.1c-0.2,0-0.1-0.2-0.1-0.3c0,0,0.1-0.1,0.1-0.1c-0.2,0-0.1-0.2-0.1-0.3c0,0,0.1-0.1,0.1-0.1
		c-0.1,0-0.1-0.1-0.1-0.2c0-0.1,0.1-0.1,0.1-0.2c-0.1,0-0.1-0.1-0.1-0.2c0-0.1,0.1-0.1,0.1-0.2c-0.2,0-0.1-0.2-0.1-0.3
		c0,0,0.1-0.1,0.1-0.1c-0.1,0-0.1-0.1-0.1-0.1c0-0.1,0-0.1,0-0.2c0.1,0,0.1,0,0.1,0.1C9.3,10.2,9.4,10.2,9.5,10.2z"/>
	<path class="st8" d="M12.1,17.4C12.1,17.4,12.1,17.4,12.1,17.4C12.2,17.4,12.2,17.4,12.1,17.4c0.1,0,0.1,0,0.1,0c0,0,0,0,0.1,0
		c0,0,0,0,0,0c0,0,0,0,0.1,0c0,0,0,0,0,0c0,0,0,0,0.1,0c0,0,0,0,0,0c0,0,0,0,0.1,0c0,0,0,0,0,0c0,0,0,0,0.1,0c0,0,0,0,0,0
		c0,0,0,0,0.1,0c0,0,0,0,0,0c0,0,0,0,0.1,0c0,0,0,0,0,0c0,0,0,0,0.1,0c0,0,0,0,0,0c0,0,0,0,0.1,0c0,0,0,0,0,0c0,0,0,0,0.1,0
		c0,0,0,0,0,0c0,0,0,0,0.1,0c0,0,0,0,0,0c0,0,0,0,0.1,0c0,0,0,0,0,0c0,0,0,0,0.1,0c0,0,0,0,0,0c0,0,0.1,0,0.1,0c0,0,0,0,0,0
		c-0.1,0-0.2,0-0.3,0c-0.1,0-0.2,0-0.2,0.1c0,0.1,0,0.2,0,0.3c0,0.1,0,0.1,0,0.2c0,0.1,0,0.2,0,0.2c0,0.1,0,0.1,0,0.2
		c0,0.1,0,0.1,0,0.2c0,0.1,0,0.1,0,0.2c0,0.1,0,0.1,0,0.2c0,0.1,0,0.1,0,0.2c0,0.1,0,0.1,0,0.2c0,0.1,0,0.1,0,0.2c0,0.1,0,0.1,0,0.2
		c0,0.1,0,0.2,0,0.2c0,0.1,0,0.1,0,0.2c0,0.1,0,0.1,0,0.2c0,0.1,0,0.1,0,0.2c0,0.1,0,0.1,0,0.2c0,0.1,0,0.1,0,0.2c0,0.1,0,0.1,0,0.2
		c0,0.1,0,0.2,0,0.3c0,0.1,0,0.1,0,0.2c0,0.1,0,0.1,0,0.2c0,0.1,0,0.1,0,0.2c0,0.1,0,0.1,0,0.2c0,0.1,0,0.1,0,0.2c0,0.1,0,0.1,0,0.2
		c0,0.1,0,0.1,0,0.2c0,0.2,0,0.4,0,0.6c0,0.2,0,0.3,0,0.5c-0.2,0-0.4,0-0.6,0c0,0,0,0,0,0c-0.3,0-0.6,0-0.9,0c0-0.1,0.1-0.2,0-0.2
		c0,0,0,0,0-0.1c0-0.1,0.1-0.2-0.1-0.3c0.1-0.1,0.1-0.3,0-0.4c0.1-0.1,0.1-0.2,0-0.4c0-0.1,0.1-0.1,0.1-0.2c0,0,0-0.1,0-0.2
		c0,0,0-0.1-0.1-0.1c0.1-0.1,0.1-0.3,0-0.4c0-0.1,0-0.2,0.1-0.3c0,0-0.1-0.1-0.1-0.1c0.1-0.1,0.1-0.3,0-0.4c0-0.1,0-0.2,0.1-0.3
		c0,0-0.1-0.1-0.1-0.1c0.1-0.1,0.1-0.2,0-0.4c0-0.1,0-0.2,0.1-0.3c0,0-0.1-0.1-0.1-0.1c0.1-0.1,0.1-0.2,0-0.4c0,0,0.1-0.1,0.1-0.1
		c0,0,0-0.1,0-0.1c0,0,0,0,0,0c0,0-0.1-0.1-0.1-0.1c0.1-0.1,0.1-0.2,0-0.4c0.1-0.1,0.1-0.2,0-0.4c0.1-0.1,0.1-0.3,0-0.4
		c0-0.2,0.2-0.2,0.3-0.2c0.1,0,0.1,0,0.2-0.1c0,0,0,0,0,0c0,0,0,0,0,0C12,17.4,12,17.4,12.1,17.4C12,17.4,12,17.4,12.1,17.4
		C12.1,17.4,12.1,17.4,12.1,17.4z"/>
	<path class="st9" d="M9.5,10.2c-0.1,0.1-0.1,0.1-0.2,0c0,0-0.1,0-0.1-0.1c0,0.1,0,0.1,0,0.2c0,0,0.1,0,0.1,0.1c0,0-0.1,0.1-0.1,0.1
		c0.1,0.1-0.1,0.2,0.1,0.3c-0.1,0.1-0.1,0.1-0.1,0.2c0,0.1,0,0.2,0.1,0.2c-0.1,0.1-0.1,0.1-0.1,0.2c0,0.1,0,0.1,0.1,0.2
		c-0.1,0-0.1,0.1-0.1,0.1C9.2,11.8,9.1,12,9.3,12c-0.1,0-0.1,0.1-0.1,0.1c0.1,0.1-0.1,0.2,0.1,0.3c-0.1,0-0.1,0.1-0.1,0.1
		c0.1,0.1-0.1,0.2,0.1,0.3c-0.1,0-0.1,0.1-0.1,0.1c0,0.2,0.1,0.2,0.1,0.3c0,0,0,0-0.1,0c0,0,0,0-0.1,0c0.1,0.1-0.1,0.3,0.1,0.3
		c-0.1,0-0.1,0.1-0.1,0.1C9.2,13.8,9.1,14,9.3,14c-0.2,0.2-0.2,0.3,0,0.4c0,0-0.1,0.1-0.1,0.1c0.1,0.1-0.1,0.2,0.1,0.3
		c-0.1,0-0.1,0.1-0.1,0.1c0,0.1,0,0.1,0,0.2c0,0,0.1,0.1,0.1,0.1c0,0-0.1,0.1-0.1,0.1c0.1,0.1-0.1,0.2,0.1,0.3
		c-0.1,0-0.1,0.1-0.1,0.1C9.2,15.8,9.1,16,9.3,16c-0.1,0-0.1,0.1-0.1,0.1c0,0.1-0.1,0.2,0.1,0.3c-0.1,0-0.1,0.1-0.1,0.1
		c0,0.1,0,0.1,0,0.2c0,0,0.1,0.1,0.1,0.1c0,0.1-0.1,0.1-0.1,0.2c0,0.1,0,0.1,0.1,0.2c-0.1,0.1-0.1,0.1-0.1,0.2c0,0.1,0,0.1,0.1,0.2
		c-0.1,0-0.1,0.1-0.1,0.1c0,0.1,0,0.1,0,0.2c0,0,0.1,0.1,0.1,0.1c0,0-0.1,0.1-0.1,0.1c0.1,0.1-0.1,0.2,0.1,0.3
		c-0.1,0-0.1,0.1-0.1,0.1c0.1,0.1-0.1,0.2,0.1,0.3c-0.1,0-0.1,0.1-0.1,0.1c0.1,0.1-0.1,0.2,0.2,0.3c-0.1,0-0.1,0.1-0.1,0.1
		c0.1,0.1-0.1,0.2,0.1,0.3c-0.1,0-0.1,0.1-0.1,0.1c0.1,0.1-0.1,0.2,0.1,0.3c-0.2,0.2-0.2,0.3,0,0.4c0,0-0.1,0.1-0.1,0.1
		c0,0.1,0,0.1,0,0.2c0,0,0.1,0.1,0.1,0.1c0,0-0.1,0.1-0.1,0.1c0.1,0.1-0.1,0.2,0.1,0.3c-0.1,0-0.1,0.1-0.1,0.1
		c0.1,0.1-0.1,0.2,0.1,0.3c-0.1,0-0.1,0.1-0.1,0.1c0.1,0.1-0.1,0.2,0.2,0.3c-0.1,0-0.1,0.1-0.1,0.1c0,0.1-0.1,0.2,0.1,0.3
		c-0.1,0-0.1,0.1-0.1,0.1c0,0.1,0,0.1,0,0.2c0,0,0.1,0.1,0.1,0.1c0,0.1-0.1,0.1-0.1,0.2c0,0.1,0,0.1,0.1,0.2
		c-0.1,0.1-0.1,0.1-0.1,0.2c0,0.1,0,0.1,0.2,0.2c-0.1,0-0.1,0.1-0.1,0.1c0,0,0,0,0,0c0,0.1,0,0.2,0,0.2c-0.3,0-0.5,0-0.8,0
		c0,0,0.1-0.1,0.1-0.1c-0.1,0-0.1-0.1,0-0.2c0,0,0-0.1,0-0.2c0-0.2-0.1-0.3,0-0.5c0-0.2,0-0.3,0-0.5c0-0.1,0-0.2,0-0.3
		c0.1-0.2,0-0.3,0-0.5c0-0.1,0-0.2,0-0.3c0,0,0-0.1,0-0.1c0-0.1,0.1-0.1,0-0.2c-0.1-0.1,0-0.3,0-0.4c0-0.1,0-0.2,0-0.3
		c0,0,0-0.1,0-0.1c-0.1-0.1,0-0.3,0-0.4c0-0.1,0-0.2,0-0.3c0,0,0-0.1,0-0.1c-0.1-0.1,0-0.3,0-0.4c0-0.1,0-0.2,0-0.3
		c0-0.1,0-0.2,0-0.4c0-0.2,0-0.3,0-0.5c0-0.1,0-0.2,0-0.3c0-0.1-0.1-0.3,0-0.4c0-0.1,0-0.1,0-0.2c0-0.1,0-0.1,0-0.2
		c0-0.2,0-0.3,0-0.5c0-0.1,0-0.3,0-0.4c0-0.1,0-0.2,0-0.4c0-0.1,0-0.3,0-0.4c0-0.1,0-0.2,0-0.4c0-0.1,0-0.3,0-0.4c0,0,0-0.1,0-0.1
		c-0.1-0.1-0.1-0.1,0-0.2c0,0,0-0.1,0-0.2c0-0.1,0-0.2,0-0.2c0-0.1,0-0.2,0-0.3c0-0.1,0.1-0.2,0.1-0.3c0-0.1,0-0.1,0-0.2
		c0-0.1,0-0.1,0-0.2c-0.1-0.1-0.1-0.2,0-0.3c0-0.1,0-0.1,0-0.2c0,0,0-0.1,0-0.1c0-0.1,0-0.2,0-0.3c0-0.1,0-0.2,0-0.2
		c0-0.1,0-0.1,0-0.2c0-0.2,0.1-0.3,0-0.5c0.1-0.2,0-0.4,0-0.6c0,0-0.1-0.1-0.1-0.2c0,0,0.1,0,0.1-0.1c0-0.2,0-0.2,0.2-0.2
		c0,0,0,0,0.1,0c0,0,0,0,0,0c0,0,0,0,0,0C8.9,9.9,9.2,10,9.5,10.2z"/>
	<path class="st10" d="M11.9,17.4c-0.1,0-0.1,0.1-0.2,0.1c-0.1,0-0.3,0.1-0.3,0.2c0.1,0.1,0.1,0.3,0,0.4c0.1,0.2,0.1,0.3,0,0.4
		c0.1,0.2,0.1,0.3,0,0.4c0,0,0.1,0.1,0.1,0.1c0,0,0,0,0,0c0,0,0,0.1,0,0.1c0,0,0,0.1-0.1,0.1c0.1,0.1,0.1,0.3,0,0.4
		c0,0,0.1,0.1,0.1,0.1c0,0.1,0,0.2-0.1,0.3c0.1,0.1,0.1,0.3,0,0.4c0,0,0.1,0.1,0.1,0.1c0,0.1,0,0.2-0.1,0.3c0.1,0.1,0.1,0.3,0,0.4
		c0,0,0.1,0.1,0.1,0.1c0,0.1,0,0.2-0.1,0.3c0.1,0.1,0.1,0.3,0,0.4c0,0,0.1,0.1,0.1,0.1c0,0.1,0,0.1,0,0.2c0,0.1,0,0.1-0.1,0.2
		c0.1,0.1,0.1,0.3,0,0.4c0.1,0.2,0.1,0.3,0,0.4c0.1,0.1,0.1,0.2,0.1,0.3c0,0,0,0.1,0,0.1c0.1,0.1,0,0.2,0,0.2c0,0-0.1,0-0.1,0
		c0,0,0,0,0,0c-0.4,0-0.9,0-1.3,0c0,0,0,0,0,0c0.2-0.1,0.1-0.2,0.1-0.3c-0.1-0.1-0.1-0.3,0-0.4c0,0,0-0.1,0-0.1
		c-0.1-0.1-0.1-0.1,0-0.2c0.1-0.1,0.1-0.1,0-0.2c-0.1-0.1-0.1-0.1,0-0.2c0,0,0-0.1,0-0.2c-0.1-0.1-0.1-0.1,0-0.2c0,0,0-0.1,0-0.2
		c-0.1-0.1-0.1-0.2,0-0.2c0,0,0-0.1,0-0.2c-0.1-0.1-0.1-0.1,0-0.2c0.1-0.1,0.1-0.1,0-0.2c-0.1-0.1-0.1-0.1,0-0.2c0,0,0-0.1,0-0.2
		c-0.1-0.1-0.1-0.1,0-0.2c0,0,0-0.1,0-0.2c-0.1-0.1-0.1-0.1,0-0.2c0,0,0-0.1,0-0.2c-0.1-0.1-0.1-0.2,0-0.2c0,0,0-0.1,0-0.2
		c-0.1-0.1-0.1-0.1,0-0.2c0,0,0-0.1,0-0.2C9.9,19,9.9,19,10,18.9c0,0,0-0.1,0-0.2c-0.1-0.1-0.1-0.1,0-0.2c0,0,0-0.1,0-0.2
		c-0.1-0.1-0.1-0.1,0-0.2c0,0,0-0.1,0-0.2c-0.1-0.1-0.1-0.1,0-0.2c0.1-0.1,0.1-0.1,0-0.2c-0.1-0.1-0.1-0.1,0-0.2c0,0,0,0,0,0
		c0-0.1,0.1-0.2,0.1-0.2c0,0,0,0,0,0c0,0,0,0,0.1,0.1c0,0,0,0,0,0c0.2,0.2,0.4,0.2,0.6,0.2c0.1,0,0.2,0,0.3,0c0,0,0,0,0,0
		c0,0,0,0,0.1,0c0,0,0,0,0,0c0,0,0,0,0.1,0c0,0,0,0,0,0c0,0,0,0,0,0c0,0,0,0,0.1,0c0,0,0,0,0,0c0,0,0,0,0.1,0c0,0,0,0,0,0
		c0,0,0,0,0.1,0c0,0,0,0,0,0C11.8,17.4,11.8,17.4,11.9,17.4C11.8,17.4,11.8,17.4,11.9,17.4C11.9,17.4,11.9,17.4,11.9,17.4z"/>
	<path class="st11" d="M18.4,17.4C18.4,17.4,18.4,17.4,18.4,17.4c0.1,0,0.1,0,0.2,0c0,0,0,0,0.1,0c0,0,0,0,0,0c0,0-0.1,0.1-0.1,0.1
		c0,0-0.1,0-0.1,0c-0.1,0.1-0.1,0.3,0,0.5c-0.1,0.1-0.1,0.3,0,0.4c-0.1,0.1-0.1,0.2,0,0.4c-0.1,0.1-0.1,0.3,0,0.4
		c-0.1,0.1-0.1,0.3,0,0.4c-0.1,0.1-0.1,0.2,0,0.4c-0.1,0.1-0.1,0.3,0,0.4c-0.1,0.1-0.1,0.3,0,0.4c-0.1,0.1-0.1,0.3,0,0.4
		c-0.1,0.1-0.1,0.3,0,0.4c-0.1,0.1-0.1,0.2,0,0.4c-0.1,0.1-0.1,0.3,0,0.4c-0.1,0.1-0.1,0.3,0,0.4c-0.1,0.1-0.1,0.2,0,0.4
		c-0.1,0.1-0.1,0.2,0,0.4c0,0,0,0.1,0,0.1c0,0,0,0.1,0,0.1c0,0.1,0,0.1,0,0.2c-0.4,0-0.8,0-1.1,0c0,0,0,0,0,0c0,0-0.1,0-0.1,0
		c0,0,0,0,0,0c0,0,0,0-0.1,0c0,0-0.1,0-0.1,0c0-0.2,0-0.5,0-0.7c0-1.9,0-3.7,0-5.6c0-0.1,0-0.1,0-0.2c0,0,0.1,0,0.1,0c0,0,0,0,0.1,0
		c0,0,0.1,0,0.1,0c0,0,0,0,0.1,0c0,0,0,0,0,0c0,0,0,0,0.1,0c0,0,0,0,0,0c0,0,0,0,0.1,0c0,0,0,0,0,0c0,0,0,0,0.1,0c0,0,0,0,0,0
		c0,0,0,0,0.1,0c0,0,0,0,0,0c0,0,0,0,0.1,0c0,0,0,0,0,0c0,0,0,0,0.1,0c0,0,0,0,0,0c0,0,0,0,0.1,0c0,0,0,0,0,0c0,0,0,0,0.1,0
		c0,0,0,0,0,0c0,0,0,0,0.1,0C18.3,17.4,18.3,17.4,18.4,17.4z"/>
	<path class="st12" d="M13,23.9c0-0.2,0-0.3,0-0.5c0-0.2,0-0.4,0-0.6c0-0.1,0-0.1,0-0.2c0-0.1,0-0.1,0-0.2c0-0.1,0-0.1,0-0.2
		c0-0.1,0-0.1,0-0.2c0-0.1,0-0.1,0-0.2c0-0.1,0-0.1,0-0.2c0-0.1,0-0.1,0-0.2c0-0.1,0-0.2,0-0.3c0-0.1,0-0.1,0-0.2c0-0.1,0-0.1,0-0.2
		c0-0.1,0-0.1,0-0.2c0-0.1,0-0.1,0-0.2c0-0.1,0-0.1,0-0.2c0-0.1,0-0.1,0-0.2c0-0.1,0-0.2,0-0.2c0-0.1,0-0.1,0-0.2c0-0.1,0-0.1,0-0.2
		c0-0.1,0-0.1,0-0.2c0-0.1,0-0.1,0-0.2c0-0.1,0-0.1,0-0.2c0-0.1,0-0.1,0-0.2c0-0.1,0-0.1,0-0.2c0-0.1,0-0.1,0-0.2c0-0.1,0-0.2,0-0.2
		c0-0.1,0-0.1,0-0.2c0-0.1,0-0.2,0-0.3c0,0,0.1-0.1,0.2-0.1c0.1,0,0.2,0,0.3,0c0,0,0,0,0,0c0,0,0.1,0,0.1,0c0,0,0,0,0,0
		c0,0,0,0,0.1,0c0,0,0,0,0,0c0,0,0,0,0.1,0c0,0,0,0,0,0c0,0,0,0,0.1,0c0,0,0,0,0,0c0,0,0.1,0,0.1,0c0.2,0,0.2,0,0.2,0.2
		c0,1.2,0,2.3,0,3.5c0,0.4,0,0.7,0,1.1c0,0.3,0,0.6,0,0.9c0,0.3,0,0.5,0,0.8c0,0-0.1,0-0.1,0c-0.3,0-0.5,0-0.8,0c0,0,0,0,0,0
		C13.3,23.9,13.2,23.9,13,23.9z"/>
	<path class="st13" d="M18.4,23.9c0-0.1,0-0.1,0-0.2c0,0,0-0.1,0-0.1c0,0,0-0.1,0-0.1c-0.1-0.1-0.1-0.2,0-0.4
		c-0.1-0.2-0.1-0.3,0-0.4c-0.1-0.1-0.1-0.3,0-0.4c-0.1-0.1-0.1-0.3,0-0.4c-0.1-0.2-0.1-0.3,0-0.4c-0.1-0.1-0.1-0.3,0-0.4
		c-0.1-0.1-0.1-0.3,0-0.4c-0.1-0.1-0.1-0.3,0-0.4c-0.1-0.1-0.1-0.3,0-0.4c-0.1-0.2-0.1-0.3,0-0.4c-0.1-0.1-0.1-0.3,0-0.4
		c-0.1-0.1-0.1-0.3,0-0.4c-0.1-0.2-0.1-0.3,0-0.4c-0.1-0.1-0.1-0.3,0-0.4c-0.1-0.2-0.1-0.3,0-0.5c0,0,0.1,0,0.1,0c0,0,0.1,0,0.1-0.1
		c0,0,0.1,0,0.1,0c0,0,0,0,0.1,0c0,0,0.1,0,0.1,0c0,0,0,0,0.1,0c0,0,0.1,0,0.1,0c0,0,0,0,0.1,0c0.2,0,0.4,0,0.5,0c0,0,0,0,0.1,0
		c0,0,0,0,0,0c0,0-0.1,0.1-0.1,0.1c0,0-0.1,0-0.1,0.1c0,0.1-0.1,0.2-0.1,0.3c0,0.2,0,0.3,0,0.5c0,0.3,0,0.6,0,0.8c0,0.3,0,0.5,0,0.8
		c0,0.3,0,0.6,0,0.9c0,0.2,0,0.5,0,0.7c0,0.4,0,0.7,0,1.1c0,0.1,0,0.2,0,0.3c0,0.2,0,0.5,0,0.7c0,0,0,0.1,0,0.1
		c0,0.1,0.1,0.1,0.1,0.2C19.2,23.9,18.8,23.9,18.4,23.9z"/>
	<path class="st14" d="M19.6,23.9c0-0.1-0.1-0.1-0.1-0.2c0,0,0-0.1,0-0.1c0-0.2,0-0.5,0-0.7c0-0.1,0-0.2,0-0.3c0-0.4,0-0.7,0-1.1
		c0-0.2,0-0.5,0-0.7c0-0.3,0-0.6,0-0.9c0-0.3,0-0.5,0-0.8c0-0.3,0-0.6,0-0.8c0-0.2,0-0.3,0-0.5c0-0.1,0-0.2,0.1-0.3
		c0,0,0.1-0.1,0.1-0.1c0,0,0.1-0.1,0.1-0.1c0,0,0,0,0,0c0.1,0,0.3,0,0.4,0c0,0,0,0,0,0c0.2,0.2,0,0.4,0.1,0.5c0,0.2,0,0.3,0,0.5
		c0,0.1,0,0.1,0,0.2c0,0.2,0,0.3,0,0.5c0,0.1,0,0.2,0,0.3c0,0.2,0,0.3,0,0.5c0,0.1,0,0.2,0,0.3c0,0.1,0,0.3,0,0.4c0,0.1,0,0.2,0,0.4
		c0,0.2,0,0.4,0,0.5c0,0.1,0,0.2,0,0.3c0,0.1,0,0.3,0,0.4c0,0.1,0,0.2,0,0.4c0,0.2,0,0.3,0,0.5c0,0.2,0,0.4,0,0.5c0,0,0,0.1,0,0.1
		c0,0.1,0,0.1,0.1,0.2C20.2,23.9,19.9,23.9,19.6,23.9z"/>
	<path class="st15" d="M16.9,23.9c0,0,0.1,0,0.1,0C17,23.9,17,23.9,16.9,23.9C16.9,23.9,16.9,23.9,16.9,23.9z"/>
	<path class="st15" d="M23.4,23.9C23.4,23.9,23.4,23.9,23.4,23.9C23.4,23.9,23.4,23.9,23.4,23.9z"/>
	<path class="st16" d="M11.3,23.9C11.3,23.9,11.3,23.9,11.3,23.9C11.3,23.9,11.3,23.9,11.3,23.9z"/>
	<path class="st16" d="M12.4,23.9C12.4,23.9,12.4,23.9,12.4,23.9C12.4,23.9,12.4,23.9,12.4,23.9z"/>
	<path class="st16" d="M13.5,23.9C13.5,23.9,13.5,23.9,13.5,23.9C13.5,23.9,13.5,23.9,13.5,23.9z"/>
	<path class="st15" d="M17.1,23.9C17.1,23.9,17.1,23.9,17.1,23.9C17.1,23.9,17.1,23.9,17.1,23.9z"/>
	<path class="st15" d="M17.2,23.9C17.3,23.9,17.3,23.9,17.2,23.9C17.3,23.9,17.3,23.9,17.2,23.9z"/>
	<path class="st10" d="M10.2,17c0-0.1-0.1-0.1-0.1-0.2c0,0,0-0.1,0-0.1c-0.1-0.1-0.1-0.2,0-0.3c0,0,0-0.1,0-0.1
		c-0.1-0.1-0.1-0.2,0-0.3c0,0,0-0.1,0-0.2c-0.1-0.1-0.1-0.2,0-0.2c0.1-0.1,0.1-0.1,0-0.2c-0.1-0.1-0.1-0.2,0-0.2c0,0,0-0.1,0-0.2
		C9.9,15,9.9,15,10,14.9c0.1-0.1,0.1-0.1,0-0.2c-0.1-0.1-0.1-0.2,0-0.2c0,0,0-0.1,0-0.2c-0.1-0.1-0.1-0.2,0-0.2c0,0,0-0.1,0-0.1
		c-0.1-0.1-0.1-0.2,0-0.3c0,0,0-0.1,0-0.2c-0.1-0.1-0.1-0.1,0-0.2c0.1-0.1,0.1-0.1,0-0.2c-0.1-0.1-0.1-0.2,0-0.2c0,0,0-0.1,0-0.2
		c-0.1-0.1-0.1-0.2,0-0.2c0.1-0.1,0.1-0.1,0-0.2c-0.1-0.1-0.1-0.2,0-0.2c0,0,0-0.1,0-0.2c-0.1-0.1-0.1-0.1,0-0.2c0,0,0-0.1,0-0.1
		c-0.1-0.1-0.1-0.2,0-0.3c0,0,0-0.1,0-0.2c-0.1-0.1-0.1-0.1,0-0.2c0.1-0.1,0.1-0.1,0-0.2c-0.1-0.1-0.1-0.2,0-0.2c0,0,0,0,0,0
		c0-0.2,0.1-0.1,0.2-0.1c0.1,0,0.3,0,0.4,0c0,0,0,0,0,0c0,0,0,0,0,0c0,0,0,0,0.1,0c0,0,0,0,0,0c0,0,0,0,0.1,0c0,0,0,0,0,0
		c0,0,0,0,0.1,0c0,0,0,0,0,0c0,0,0,0,0.1,0c0,0,0,0,0,0c0,0,0,0,0.1,0c0,0,0,0,0,0c0,0,0,0,0.1,0c0,0,0,0,0.1,0c0.1,0,0.1,0,0.2,0
		c0,0,0,0-0.1,0c-0.1,0-0.3,0-0.4,0.1c0,0-0.1,0-0.1,0.1c0,0.2,0,0.3,0,0.5c0,0.2,0,0.4,0,0.6c0,0.1,0,0.2,0,0.2c0,0.2,0,0.4,0,0.6
		c0,0.2,0,0.4,0,0.5c0,0.2,0,0.4,0,0.6c0,0.1,0,0.1,0,0.2c0,0.2,0,0.4,0,0.6c0,0.2,0,0.4,0,0.5c0,0.2,0,0.4,0,0.6c0,0.1,0,0.3,0,0.4
		c0,0,0,0,0,0c0,0,0,0,0,0c0,0,0,0,0,0c0,0,0,0,0,0c0,0,0,0,0,0c0,0,0,0,0,0c0,0,0,0,0,0c0,0,0,0,0,0c0,0,0,0,0,0c0,0,0,0,0,0
		c0,0,0,0,0,0c0,0,0,0,0,0c0,0,0,0,0,0c0,0,0,0,0,0c-0.1,0.2-0.3,0.3-0.4,0.5C10.2,16.7,10.2,16.9,10.2,17z"/>
	<path class="st17" d="M20.4,10.2c0,0-0.1,0.1-0.1,0.1c-0.2,0-0.2,0.1-0.2,0.3c0,0.1,0,0.2,0,0.3c0,0,0,0.1,0,0.1
		c0,0.1,0.1,0.2,0,0.3c0,0,0,0,0,0.1c0,0,0,0.1,0,0.1c0,0.2,0,0.4,0,0.6c0,0,0,0,0,0c0,0.2,0,0.3,0,0.5c0,0,0,0,0,0
		c0,0.2,0,0.4,0,0.6c0,0,0,0.1,0,0.1c0,0,0,0,0,0c0,0.2,0,0.4,0,0.6c0,0.1,0,0.1,0,0.2c0,0.2,0,0.4,0,0.6c0,0.1,0,0.1,0,0.2
		c0,0.1,0,0.1,0,0.2c-0.1,0.1,0,0.2,0,0.3c0,0.1,0,0.1,0,0.2c-0.3-0.3-0.7-0.7-1-1c0,0-0.1,0-0.1-0.1c0,0,0,0,0,0c0,0,0,0,0,0
		c0,0,0,0,0,0c0,0,0-0.1,0-0.1c0-0.1-0.1-0.2,0-0.2c0.1-0.2,0-0.5,0.1-0.7c0-0.2,0-0.4,0-0.6c0,0,0-0.1,0-0.1c0-0.2,0-0.3,0-0.5
		c0-0.2,0-0.4,0-0.6c0-0.2,0-0.3,0-0.5c0-0.2,0-0.5,0-0.7c0-0.1,0-0.1,0.1-0.1c0.1,0,0.2-0.1,0.3-0.1c0,0,0,0,0,0c0,0,0,0,0.1,0
		c0,0,0,0,0,0c0,0,0,0,0.1,0c0,0,0,0,0,0c0,0,0,0,0.1,0c0,0,0,0,0,0c0,0,0,0,0.1,0c0,0,0,0,0,0C20,10.2,20.2,10.2,20.4,10.2z"/>
	<path class="st18" d="M10.9,15.9c0-0.1,0-0.3,0-0.4c0-0.2,0-0.4,0-0.6c0-0.2,0-0.4,0-0.5c0-0.2,0-0.4,0-0.6c0-0.1,0-0.1,0-0.2
		c0-0.2,0-0.4,0-0.6c0-0.2,0-0.4,0-0.5c0-0.2,0-0.4,0-0.6c0-0.1,0-0.2,0-0.2c0-0.2,0-0.4,0-0.6c0-0.2,0-0.4,0-0.5
		c0,0,0.1-0.1,0.1-0.1c0.1,0,0.3,0,0.4-0.1c0,0,0,0,0.1,0c0.1,0,0.1,0,0.2,0c0.1,0,0.2,0,0.3,0c0,0,0,0,0.1,0c0,0,0.1,0,0.1,0
		c-0.1,0-0.2,0.1-0.3,0.1c0,0-0.1,0-0.1,0.1c0,0.1,0,0.1,0,0.2c0,0.1,0,0.1,0,0.2c0,0.1,0,0.2,0,0.3c0,0.1,0,0.2,0,0.3
		c0,0.1,0,0.1,0,0.2c0,0.2,0,0.3,0,0.5c0,0.2,0,0.4,0,0.5c0,0.1,0,0.2,0,0.3c0,0.2,0,0.3,0,0.5c0,0.1,0,0.1,0,0.2c0,0.1,0,0.2,0,0.3
		c0,0.1,0,0.2,0,0.3c0,0.1,0,0.2,0,0.3c0,0.1,0,0.1,0,0.2c0,0,0,0,0,0.1c0,0,0,0,0.1,0.1c-0.2,0.2-0.5,0.5-0.7,0.7
		C11.2,15.7,11,15.8,10.9,15.9z"/>
	<path class="st19" d="M12,14.8C12,14.8,12,14.8,12,14.8c-0.1-0.1-0.1-0.1-0.1-0.1c0-0.1,0-0.1,0-0.2c0-0.1,0-0.2,0-0.3
		c0-0.1,0-0.2,0-0.3c0-0.1,0-0.2,0-0.3c0-0.1,0-0.1,0-0.2c0-0.2,0-0.3,0-0.5c0-0.1,0-0.2,0-0.3c0-0.2,0-0.4,0-0.5c0-0.2,0-0.3,0-0.5
		c0-0.1,0-0.1,0-0.2c0-0.1,0-0.2,0-0.3c0-0.1,0-0.2,0-0.3c0-0.1,0-0.1,0-0.2c0-0.1,0-0.1,0-0.2c0,0,0-0.1,0.1-0.1
		c0.1,0,0.2,0,0.3-0.1c0,0-0.1,0-0.1,0c0,0,0,0,0,0c0.2,0,0.5,0,0.7,0c0,0,0,0,0.1,0c0,0,0,0,0,0c0,0,0,0,0,0c0,0,0,0,0,0
		c0,0,0,0,0,0c0,0,0,0,0.1,0c0,0,0,0,0,0c0,0,0,0,0,0c0,0,0,0,0,0c0,0,0,0,0,0c0,0,0,0,0.1,0c0,0,0,0,0,0c0,0,0,0,0,0c0,0,0,0,0.1,0
		c0,0,0,0,0,0c0,0,0,0,0,0c0,0,0,0,0,0c0,0,0,0,0,0c0,0,0,0.1-0.1,0.1c-0.1,0.1-0.2,0.3-0.1,0.4c0,0,0,0.1,0,0.1
		c-0.1,0.1-0.1,0.2,0,0.3c0,0,0,0.1,0,0.1c-0.1,0.1-0.1,0.2,0,0.3c0,0,0,0.1,0,0.1c-0.1,0.1-0.1,0.2,0,0.3c0,0,0,0.1,0,0.1
		c-0.1,0.1-0.1,0.2,0,0.3c0,0,0,0.1,0,0.1c-0.1,0.1-0.1,0.2,0,0.3c0,0,0,0.1,0,0.1c-0.1,0.1-0.1,0.2,0,0.3c0,0,0,0.1,0,0.1
		c0,0.1,0,0.2,0,0.3c0,0.1,0,0.1,0,0.2c0,0,0,0-0.1,0.1c0,0,0,0,0,0C12.7,14.1,12.4,14.5,12,14.8z"/>
	<path class="st20" d="M19.4,10.2c-0.1,0-0.2,0.1-0.3,0.1c-0.1,0-0.1,0-0.1,0.1c0,0.2,0,0.5,0,0.7c0,0.2,0,0.4,0,0.5
		c0,0.2,0,0.4,0,0.6c0,0.2,0,0.3,0,0.5c0,0,0,0.1,0,0.1c0,0.2,0,0.4,0,0.6c0,0.2,0.1,0.5-0.1,0.7c0,0.1,0,0.2,0,0.2c0,0,0,0.1,0,0.1
		c-0.3-0.3-0.6-0.6-0.9-0.9c0,0,0-0.1-0.1-0.1c0,0,0-0.1,0-0.1c0-0.1-0.1-0.1-0.1-0.2c0.2,0,0.1-0.2,0.1-0.3c0-0.2,0-0.3,0-0.5
		c0-0.1,0-0.1,0-0.2c0-0.1,0-0.2,0-0.3c0-0.1,0-0.2,0-0.4c0-0.1,0-0.2,0-0.2c0-0.1,0-0.2,0-0.4c0,0,0,0,0-0.1c0-0.1,0-0.2,0-0.4
		c-0.1-0.1-0.1-0.2,0.2-0.3c0.1,0,0.1,0,0.1-0.1c0,0,0.1,0,0.1,0c0,0,0,0,0,0c0,0,0,0,0.1,0c0,0,0,0,0,0c0.1,0,0.1,0,0.2,0
		c0,0,0,0,0,0c0.1,0,0.1,0,0.2,0c0,0,0,0,0,0c0,0,0,0,0.1,0c0,0,0,0,0,0c0,0,0,0,0.1,0c0,0,0,0,0,0c0,0,0,0,0.1,0
		C19.3,10.2,19.3,10.2,19.4,10.2C19.3,10.2,19.4,10.2,19.4,10.2C19.4,10.2,19.4,10.2,19.4,10.2z"/>
	<path class="st12" d="M13.1,13.7c0-0.1,0-0.1,0-0.2c0-0.1,0-0.2,0-0.3c0,0,0-0.1,0-0.1c-0.1-0.1-0.1-0.2,0-0.3c0,0,0-0.1,0-0.1
		c-0.1-0.1-0.1-0.2,0-0.3c0,0,0-0.1,0-0.1c-0.1-0.1-0.1-0.2,0-0.3c0,0,0-0.1,0-0.1c-0.1-0.1-0.1-0.2,0-0.3c0,0,0-0.1,0-0.1
		c-0.1-0.1-0.1-0.2,0-0.3c0,0,0-0.1,0-0.1c-0.1-0.1-0.1-0.2,0-0.3c0,0,0-0.1,0-0.1c-0.1-0.1,0-0.3,0.1-0.4c0,0,0.1-0.1,0.1-0.1
		c0.1,0,0.2,0,0.3,0c0,0,0,0,0.1,0c0.1,0,0.2,0,0.2,0c0,0,0,0,0.1,0c0,0,0,0,0,0c0.1,0,0.2,0,0.3,0c0,0,0.1,0.1,0.1,0.1c0,0,0,0,0,0
		c0,0.1,0,0.2,0,0.3c0,0.2,0,0.3,0,0.5c0,0.2,0,0.3,0,0.5c0,0.2,0,0.3,0,0.5c0,0.1,0,0.3-0.1,0.4c-0.1,0.1-0.1,0.2-0.2,0.3
		C13.8,13.1,13.4,13.4,13.1,13.7z"/>
	<path class="st11" d="M18.3,10.2c0,0-0.1,0.1-0.1,0.1c-0.2,0-0.3,0.1-0.2,0.3c0,0.2,0,0.3,0,0.4c0,0,0,0,0,0.1c0,0.1,0,0.2,0,0.4
		c0,0.1,0,0.2,0,0.2c0,0.1,0,0.2,0,0.4c0,0.1,0,0.2,0,0.3c0,0.1,0,0.1,0,0.2c0,0.2,0,0.3,0,0.5c0,0.1,0.1,0.3-0.1,0.3
		c0,0.1,0.1,0.2,0.1,0.2c0,0,0,0.1,0,0.1c0,0,0,0.1,0.1,0.1c-0.3-0.3-0.5-0.5-0.8-0.8c-0.1-0.1-0.2-0.2-0.3-0.4c0,0,0-0.1,0-0.1
		c-0.1-0.2-0.2-0.3-0.1-0.6c0.1-0.1,0-0.3,0-0.5c0-0.1,0-0.2,0-0.2c0-0.2,0-0.4,0-0.6c0,0,0-0.1,0-0.1c-0.1-0.1,0-0.2,0.1-0.3
		c0,0,0.1-0.1,0.1-0.1C17.6,10.2,17.9,10.2,18.3,10.2z"/>
	<path class="st21" d="M14.1,12.8c0.1-0.1,0.1-0.2,0.2-0.3c0.1-0.1,0.1-0.2,0.1-0.4c0-0.2,0-0.3,0-0.5c0-0.2,0-0.3,0-0.5
		c0-0.2,0-0.3,0-0.5c0-0.1,0-0.2,0-0.3c0,0,0,0,0,0c0,0-0.1-0.1-0.1-0.1c0.5,0,1,0,1.5,0c0,0.1-0.1,0.1-0.1,0.2c0,0.2,0,0.3,0,0.5
		c0,0.1,0,0.1,0,0.2c0,0.2,0,0.4-0.1,0.5c-0.3,0-0.6,0.2-0.8,0.4C14.6,12.3,14.3,12.5,14.1,12.8z"/>
	<path class="st22" d="M15.6,11.7c0.1-0.2,0.1-0.4,0.1-0.5c0-0.1,0-0.1,0-0.2c0-0.2,0-0.3,0-0.5c0-0.1,0.1-0.1,0.1-0.2
		c0.4,0,0.9,0,1.3,0c0,0-0.1,0.1-0.1,0.1c-0.1,0-0.2,0.1-0.1,0.3c0,0,0,0.1,0,0.1c0,0.2,0,0.4,0,0.6c0,0.1,0,0.2,0,0.2
		c0,0.2,0,0.4,0,0.5c-0.1,0.2,0,0.4,0.1,0.6c0,0,0,0,0,0.1c-0.1-0.1-0.3-0.2-0.4-0.4C16.4,12,16.1,11.7,15.6,11.7z"/>
	<path class="st23" d="M14.4,22.1c0-0.4,0-0.7,0-1.1c0,0,0,0.1,0,0.1C14.4,21.5,14.4,21.8,14.4,22.1C14.4,22.1,14.4,22.1,14.4,22.1z
		"/>
	<path class="st24" d="M14.4,22.1C14.4,22.1,14.4,22.1,14.4,22.1c0,0.3,0,0.6,0,0.9c0,0,0,0.1,0,0.1C14.4,22.8,14.4,22.4,14.4,22.1z
		"/>
	<path class="st25" d="M19.8,17.4c-0.2,0-0.4,0-0.5,0C19.4,17.4,19.6,17.4,19.8,17.4z"/>
	<path class="st25" d="M13.7,17.4C13.7,17.4,13.6,17.4,13.7,17.4c-0.1,0-0.1,0-0.2,0C13.6,17.4,13.6,17.4,13.7,17.4z"/>
	<path class="st20" d="M19.1,14.7C19.1,14.7,19.1,14.7,19.1,14.7C19.1,14.7,19.1,14.7,19.1,14.7z"/>
	<path class="st25" d="M18.4,17.4c0,0-0.1,0-0.1,0C18.3,17.4,18.3,17.4,18.4,17.4z"/>
	<path class="st25" d="M18.6,17.4c0,0-0.1,0-0.1,0C18.5,17.4,18.5,17.4,18.6,17.4z"/>
	<path class="st25" d="M18.8,17.4C18.7,17.4,18.7,17.4,18.8,17.4c-0.1,0-0.1,0-0.1,0C18.7,17.4,18.7,17.4,18.8,17.4z"/>
	<path class="st25" d="M17.3,17.4c0,0-0.1,0-0.1,0C17.2,17.4,17.2,17.4,17.3,17.4z"/>
	<path class="st25" d="M19,17.4c0,0-0.1,0-0.1,0C18.9,17.4,18.9,17.4,19,17.4z"/>
	<path class="st25" d="M19.2,17.4c0,0-0.1,0-0.1,0C19.1,17.4,19.1,17.4,19.2,17.4z"/>
	<path class="st25" d="M14.2,17.4c0,0-0.1,0-0.1,0C14.1,17.4,14.1,17.4,14.2,17.4z"/>
	<path class="st25" d="M19.9,17.4C19.9,17.4,19.9,17.4,19.9,17.4C19.8,17.4,19.8,17.4,19.9,17.4C19.8,17.4,19.9,17.4,19.9,17.4z"/>
	<path class="st25" d="M17.1,17.4c0,0-0.1,0-0.1,0C17,17.4,17,17.4,17.1,17.4z"/>
	<path class="st12" d="M13,13.8C13.1,13.8,13.1,13.8,13,13.8C13.1,13.8,13.1,13.8,13,13.8z"/>
	<path class="st25" d="M12.4,17.4C12.4,17.4,12.4,17.4,12.4,17.4C12.4,17.4,12.4,17.4,12.4,17.4z"/>
	<path class="st25" d="M12.3,17.4C12.3,17.4,12.3,17.4,12.3,17.4C12.3,17.4,12.3,17.4,12.3,17.4z"/>
	<path class="st25" d="M13.8,17.4C13.8,17.4,13.8,17.4,13.8,17.4C13.8,17.4,13.8,17.4,13.8,17.4z"/>
	<path class="st25" d="M14,17.4C14,17.4,14,17.4,14,17.4C14,17.4,14,17.4,14,17.4z"/>
	<path class="st25" d="M17.4,17.4C17.4,17.4,17.3,17.4,17.4,17.4C17.3,17.4,17.4,17.4,17.4,17.4z"/>
	<path class="st25" d="M17.5,17.4C17.5,17.4,17.4,17.4,17.5,17.4C17.4,17.4,17.5,17.4,17.5,17.4z"/>
	<path class="st25" d="M17.6,17.4C17.6,17.4,17.5,17.4,17.6,17.4C17.5,17.4,17.6,17.4,17.6,17.4z"/>
	<path class="st25" d="M17.7,17.4C17.7,17.4,17.6,17.4,17.7,17.4C17.6,17.4,17.7,17.4,17.7,17.4z"/>
	<path class="st25" d="M17.8,17.4C17.8,17.4,17.7,17.4,17.8,17.4C17.7,17.4,17.8,17.4,17.8,17.4z"/>
	<path class="st25" d="M17.9,17.4C17.8,17.4,17.8,17.4,17.9,17.4C17.8,17.4,17.8,17.4,17.9,17.4z"/>
	<path class="st25" d="M13.5,17.4C13.5,17.4,13.5,17.4,13.5,17.4C13.5,17.4,13.5,17.4,13.5,17.4z"/>
	<path class="st25" d="M13.4,17.4C13.4,17.4,13.4,17.4,13.4,17.4C13.4,17.4,13.4,17.4,13.4,17.4z"/>
	<path class="st25" d="M13.3,17.4C13.3,17.4,13.3,17.4,13.3,17.4C13.3,17.4,13.3,17.4,13.3,17.4z"/>
	<path class="st25" d="M13.2,17.4C13.2,17.4,13.2,17.4,13.2,17.4C13.2,17.4,13.2,17.4,13.2,17.4z"/>
	<path class="st25" d="M13.1,17.4C13.1,17.4,13.1,17.4,13.1,17.4C13.1,17.4,13.1,17.4,13.1,17.4z"/>
	<path class="st25" d="M13,17.4C13,17.4,13,17.4,13,17.4C13,17.4,13,17.4,13,17.4z"/>
	<path class="st25" d="M12.9,17.4C12.9,17.4,12.9,17.4,12.9,17.4C12.9,17.4,12.9,17.4,12.9,17.4z"/>
	<path class="st25" d="M18,17.4C17.9,17.4,17.9,17.4,18,17.4C17.9,17.4,17.9,17.4,18,17.4z"/>
	<path class="st25" d="M12.8,17.4C12.8,17.4,12.8,17.4,12.8,17.4C12.8,17.4,12.8,17.4,12.8,17.4z"/>
	<path class="st25" d="M18.1,17.4C18,17.4,18,17.4,18.1,17.4C18,17.4,18,17.4,18.1,17.4z"/>
	<path class="st25" d="M12.7,17.4C12.7,17.4,12.7,17.4,12.7,17.4C12.7,17.4,12.7,17.4,12.7,17.4z"/>
	<path class="st25" d="M12.6,17.4C12.6,17.4,12.6,17.4,12.6,17.4C12.6,17.4,12.6,17.4,12.6,17.4z"/>
	<path class="st25" d="M12.5,17.4C12.5,17.4,12.5,17.4,12.5,17.4C12.5,17.4,12.5,17.4,12.5,17.4z"/>
	<path class="st25" d="M11.5,17.4C11.5,17.4,11.5,17.4,11.5,17.4C11.5,17.4,11.5,17.4,11.5,17.4z"/>
	<path class="st25" d="M11.6,17.4C11.6,17.4,11.6,17.4,11.6,17.4C11.6,17.4,11.6,17.4,11.6,17.4z"/>
	<path class="st25" d="M11.7,17.4C11.7,17.4,11.7,17.4,11.7,17.4C11.7,17.4,11.7,17.4,11.7,17.4z"/>
	<path class="st25" d="M11.8,17.4C11.8,17.4,11.8,17.4,11.8,17.4C11.8,17.4,11.8,17.4,11.8,17.4z"/>
	<path class="st25" d="M18.2,17.4C18.1,17.4,18.1,17.4,18.2,17.4C18.1,17.4,18.1,17.4,18.2,17.4z"/>
	<path class="st25" d="M11.9,17.4C11.9,17.4,11.9,17.4,11.9,17.4C11.9,17.4,11.9,17.4,11.9,17.4C11.9,17.4,11.9,17.4,11.9,17.4z"/>
	<path class="st25" d="M12,17.4C12,17.4,12,17.4,12,17.4C12,17.4,12,17.4,12,17.4z"/>
	<path class="st25" d="M12.1,17.4C12.1,17.4,12.1,17.4,12.1,17.4C12.1,17.4,12.1,17.4,12.1,17.4z"/>
	<path class="st25" d="M12.2,17.4C12.2,17.4,12.2,17.4,12.2,17.4C12.2,17.4,12.2,17.4,12.2,17.4z"/>
	<path class="st25" d="M13.9,17.4C13.9,17.4,13.9,17.4,13.9,17.4C13.9,17.4,13.9,17.4,13.9,17.4z"/>
	<path class="st18" d="M10.7,16.1C10.7,16.1,10.7,16.1,10.7,16.1C10.7,16.1,10.7,16.1,10.7,16.1z"/>
	<path class="st25" d="M11.3,17.4C11.3,17.4,11.3,17.4,11.3,17.4C11.3,17.4,11.3,17.4,11.3,17.4z"/>
	<path class="st25" d="M11.2,17.4C11.2,17.4,11.2,17.4,11.2,17.4C11.2,17.4,11.2,17.4,11.2,17.4z"/>
	<path class="st7" d="M10.3,17.1C10.3,17.1,10.2,17.1,10.3,17.1C10.2,17.1,10.3,17.1,10.3,17.1z"/>
	<path class="st18" d="M10.8,16.1C10.8,16.1,10.8,16.1,10.8,16.1C10.8,16.1,10.8,16.1,10.8,16.1z"/>
	<path class="st18" d="M10.8,16.1C10.8,16,10.8,16,10.8,16.1C10.8,16,10.8,16,10.8,16.1z"/>
	<path class="st18" d="M10.8,16C10.8,16,10.8,16,10.8,16C10.8,16,10.8,16,10.8,16z"/>
	<path class="st18" d="M10.8,16C10.8,16,10.8,16,10.8,16C10.8,16,10.8,16,10.8,16z"/>
	<path class="st18" d="M10.9,16C10.9,16,10.9,16,10.9,16C10.9,16,10.9,16,10.9,16z"/>
	<path class="st18" d="M10.9,16C10.9,15.9,10.9,15.9,10.9,16C10.9,15.9,10.9,15.9,10.9,16z"/>
	<path class="st20" d="M19,14.6C19,14.6,19.1,14.7,19,14.6C19.1,14.7,19,14.6,19,14.6z"/>
	<path class="st25" d="M11.4,17.4C11.4,17.4,11.4,17.4,11.4,17.4C11.4,17.4,11.4,17.4,11.4,17.4z"/>
	<path class="st1" d="M12.9,10.2c-0.2,0-0.5,0-0.7,0C12.4,10.2,12.6,10.2,12.9,10.2z"/>
	<path class="st1" d="M12.1,10.2c-0.1,0-0.2,0-0.3,0C11.9,10.2,12,10.2,12.1,10.2z"/>
	<path class="st23" d="M13.6,10.2c-0.1,0-0.2,0-0.3,0c0,0,0,0,0,0c0,0,0,0,0,0C13.4,10.2,13.5,10.2,13.6,10.2z"/>
	<path class="st23" d="M13.9,10.2c-0.1,0-0.2,0-0.2,0C13.7,10.2,13.8,10.2,13.9,10.2z"/>
	<path class="st1" d="M13.3,10.2C13.3,10.2,13.3,10.2,13.3,10.2C13.3,10.2,13.3,10.2,13.3,10.2C13.3,10.2,13.2,10.2,13.3,10.2
		C13.2,10.2,13.2,10.2,13.3,10.2C13.2,10.2,13.3,10.2,13.3,10.2z"/>
	<path class="st25" d="M11.3,10.3C11.3,10.2,11.3,10.2,11.3,10.3C11.3,10.2,11.3,10.2,11.3,10.3z"/>
	<path class="st25" d="M21,10.2C20.9,10.2,20.9,10.2,21,10.2C20.9,10.2,20.9,10.2,21,10.2z"/>
	<path class="st1" d="M13.2,10.2C13.2,10.2,13.2,10.2,13.2,10.2C13.2,10.2,13.1,10.2,13.2,10.2C13.1,10.2,13.2,10.2,13.2,10.2z"/>
	<path class="st1" d="M13.1,10.2C13.1,10.2,13.1,10.2,13.1,10.2C13.1,10.2,13,10.2,13.1,10.2C13,10.2,13.1,10.2,13.1,10.2z"/>
	<path class="st1" d="M13,10.2C13,10.2,13,10.2,13,10.2C13,10.2,12.9,10.2,13,10.2C12.9,10.2,13,10.2,13,10.2z"/>
	<path class="st25" d="M11.2,10.2C11.2,10.2,11.2,10.2,11.2,10.2C11.2,10.2,11.2,10.2,11.2,10.2z"/>
	<path class="st25" d="M11.1,10.2C11.1,10.2,11.1,10.2,11.1,10.2C11.1,10.2,11.1,10.2,11.1,10.2z"/>
	<path class="st25" d="M11,10.2C11,10.2,11,10.2,11,10.2C11,10.2,11,10.2,11,10.2z"/>
	<path class="st25" d="M10.9,10.2C10.9,10.2,10.9,10.2,10.9,10.2C10.9,10.2,10.9,10.2,10.9,10.2z"/>
	<path class="st25" d="M10.8,10.2C10.8,10.2,10.8,10.2,10.8,10.2C10.8,10.2,10.8,10.2,10.8,10.2z"/>
	<path class="st25" d="M10.7,10.2C10.7,10.2,10.7,10.3,10.7,10.2C10.7,10.3,10.7,10.2,10.7,10.2C10.7,10.2,10.7,10.2,10.7,10.2z"/>
	<path class="st25" d="M10.6,10.2C10.6,10.2,10.6,10.2,10.6,10.2C10.6,10.2,10.6,10.2,10.6,10.2z"/>
	<path class="st25" d="M10.5,10.2C10.5,10.2,10.5,10.2,10.5,10.2C10.5,10.2,10.5,10.2,10.5,10.2z"/>
	<path class="st25" d="M10.4,10.2C10.4,10.2,10.4,10.2,10.4,10.2C10.4,10.2,10.4,10.2,10.4,10.2z"/>
	<path class="st25" d="M10.3,10.2C10.3,10.2,10.3,10.2,10.3,10.2C10.3,10.2,10.3,10.2,10.3,10.2z"/>
	<path class="st25" d="M10.2,10.2C10.2,10.2,10.2,10.2,10.2,10.2C10.2,10.2,10.2,10.2,10.2,10.2z"/>
	<path class="st24" d="M19.8,10.2C19.8,10.2,19.8,10.2,19.8,10.2C19.8,10.2,19.8,10.2,19.8,10.2z"/>
	<path class="st24" d="M19.7,10.2C19.7,10.2,19.7,10.2,19.7,10.2C19.7,10.2,19.7,10.2,19.7,10.2z"/>
	<path class="st24" d="M19.6,10.2C19.6,10.2,19.6,10.2,19.6,10.2C19.6,10.2,19.6,10.2,19.6,10.2z"/>
	<path class="st24" d="M19.5,10.2C19.5,10.2,19.5,10.2,19.5,10.2C19.5,10.2,19.5,10.2,19.5,10.2z"/>
	<path class="st24" d="M19.4,10.2C19.4,10.2,19.4,10.2,19.4,10.2C19.4,10.2,19.4,10.2,19.4,10.2C19.4,10.2,19.4,10.2,19.4,10.2z"/>
	<path class="st24" d="M19.3,10.2C19.3,10.2,19.3,10.2,19.3,10.2C19.3,10.2,19.3,10.2,19.3,10.2z"/>
	<path class="st24" d="M19.2,10.2C19.2,10.2,19.2,10.2,19.2,10.2C19.2,10.2,19.2,10.2,19.2,10.2z"/>
	<path class="st24" d="M19.1,10.2C19.1,10.2,19.1,10.2,19.1,10.2C19.1,10.2,19.1,10.2,19.1,10.2z"/>
	<path class="st24" d="M19,10.2C19,10.2,19,10.2,19,10.2C19,10.2,19,10.2,19,10.2z"/>
	<path class="st24" d="M18.8,10.2C18.8,10.2,18.8,10.2,18.8,10.2C18.8,10.2,18.8,10.2,18.8,10.2z"/>
	<path class="st24" d="M18.6,10.2C18.6,10.2,18.6,10.2,18.6,10.2C18.6,10.2,18.6,10.2,18.6,10.2z"/>
	<path class="st24" d="M18.5,10.2C18.5,10.2,18.5,10.2,18.5,10.2C18.5,10.2,18.5,10.2,18.5,10.2z"/>
	<path class="st23" d="M14,10.2C14,10.2,14,10.2,14,10.2C14,10.2,14,10.2,14,10.2z"/>
	<path class="st1" d="M13.1,10.2C13.1,10.2,13.1,10.2,13.1,10.2C13.1,10.2,13.1,10.2,13.1,10.2z"/>
	<path class="st1" d="M13,10.2C13,10.2,13,10.2,13,10.2C13,10.2,13,10.2,13,10.2z"/>
	<path class="st4" d="M8.7,9.8C8.7,9.8,8.6,9.8,8.7,9.8C8.6,9.8,8.7,9.8,8.7,9.8z"/>
	<path class="st12" d="M13.2,10.2C13.2,10.2,13.3,10.2,13.2,10.2C13.3,10.2,13.2,10.2,13.2,10.2z"/>
</g>
</svg>
